<svg width="48" height="48" xmlns="http://www.w3.org/2000/svg"><path d="m3.2 7.4a3.2 3.2 0 00-3.2 3.2 3.2 3.2 0 003.2 3.2 3.2 3.2 0 003.2-3.2 3.2 3.2 0 00-3.2-3.2zm11 0c-2 0-3.6 1.4-3.6 3.2 0 1.7 1.6 3.2 3.6 3.2h31c2 0 3.6-1.4 3.6-3.2 0-1.7-1.6-3.2-3.6-3.2zm-11 13a3.2 3.2 0 00-3.2 3.2 3.2 3.2 0 003.2 3.2 3.2 3.2 0 003.2-3.2 3.2 3.2 0 00-3.2-3.2zm11 0c-2 0-3.6 1.4-3.6 3.2 0 1.7 1.6 3.2 3.6 3.2h31c2 0 3.6-1.4 3.6-3.2 0-1.7-1.6-3.2-3.6-3.2zm-11 13a3.2 3.2 0 00-3.2 3.2 3.2 3.2 0 003.2 3.2 3.2 3.2 0 003.2-3.2 3.2 3.2 0 00-3.2-3.2zm11 0c-2 0-3.6 1.4-3.6 3.2 0 1.8 1.6 3.2 3.6 3.2h31c2 0 3.6-1.4 3.6-3.2 0-1.8-1.6-3.2-3.6-3.2z" fill="#fff"/></svg>
