<svg width="64" height="64" fill="none" stroke="#ddd" stroke-width="1.89" xmlns="http://www.w3.org/2000/svg"><g transform="matrix(1.88 0 0 1.88 -12.4 -28.2)"><g><path class="UnoptimicedTransforms" transform="matrix(0 -1.31 1.31 0 -5.61 83)" d="m38.7 14.2-10.2 10.2h10.3zm.201 0 10.2 10.2h-10.3z" stroke-linecap="square" stroke-linejoin="round" stroke-width=".378" style="paint-order:stroke markers fill" fill="#ddd"/><rect x="6.58" y="25.8" width="16.5" height="12.6" ry="2.12" style="paint-order:stroke markers fill" fill="#ddd"/><path d="m28.2 35.7s3.94-.311 3.94-3.64-3.94-3.64-3.94-3.64z" stroke-width="0" fill="#ddd"/></g><path d="m28.2 19.5s11.4.692 11.4 12.3-11.4 12.8-11.4 12.8" stroke-linejoin="bevel" /><path d="m28.3 24.4s7.2-.548 7.2 7.45c0 8-7.2 7.63-7.2 7.63" stroke-linejoin="bevel"/></g></svg>
