<?xml version="1.0" encoding="UTF-8" standalone="no"?>
<svg
   xmlns:dc="http://purl.org/dc/elements/1.1/"
   xmlns:cc="http://creativecommons.org/ns#"
   xmlns:rdf="http://www.w3.org/1999/02/22-rdf-syntax-ns#"
   xmlns:svg="http://www.w3.org/2000/svg"
   xmlns="http://www.w3.org/2000/svg"
   xmlns:xlink="http://www.w3.org/1999/xlink"
   xmlns:sodipodi="http://sodipodi.sourceforge.net/DTD/sodipodi-0.dtd"
   xmlns:inkscape="http://www.inkscape.org/namespaces/inkscape"
   width="512"
   height="512"
   version="1.1"
   id="svg16"
   sodipodi:docname="webcord.svg"
   inkscape:version="1.0.2 (e86c870879, 2021-01-15)"
   viewBox="0 0 512 512">
  <metadata
     id="metadata22">
    <rdf:RDF>
      <cc:Work
         rdf:about="">
        <dc:format>image/svg+xml</dc:format>
        <dc:type
           rdf:resource="http://purl.org/dc/dcmitype/StillImage" />
        <dc:title></dc:title>
      </cc:Work>
    </rdf:RDF>
  </metadata>
  <defs
     id="defs20">
    <linearGradient
       inkscape:collect="always"
       id="linearGradient840">
      <stop
         style="stop-color:#6bbce9;stop-opacity:1"
         offset="0"
         id="stop844" />
      <stop
         style="stop-color:#4084d6;stop-opacity:1"
         offset="1"
         id="stop846" />
    </linearGradient>
    <linearGradient
       inkscape:collect="always"
       xlink:href="#linearGradient840"
       id="linearGradient842"
       x1="14.396403"
       y1="11.523335"
       x2="44"
       y2="47"
       gradientUnits="userSpaceOnUse"
       gradientTransform="matrix(8,0,0,8,-48,-23.5)" />
  </defs>
  <sodipodi:namedview
     pagecolor="#ffffff"
     bordercolor="#666666"
     borderopacity="1"
     objecttolerance="10"
     gridtolerance="10"
     guidetolerance="10"
     inkscape:pageopacity="0"
     inkscape:pageshadow="2"
     inkscape:window-width="1920"
     inkscape:window-height="1021"
     id="namedview18"
     showgrid="false"
     inkscape:zoom="1.5625"
     inkscape:cx="256"
     inkscape:cy="256"
     inkscape:window-x="0"
     inkscape:window-y="31"
     inkscape:window-maximized="1"
     inkscape:current-layer="svg16"
     inkscape:document-rotation="0"
     scale-x="0.25" />
  <g
     id="g847"
     transform="translate(48,19.5)">
    <path
       style="opacity:0.2;stroke-width:8"
       d="m 0,360.5 v 16 c 0,26.592 21.408,48 48,48 h 320 l 48,48 v -16 l -48,-48 H 48 c -26.592,0 -48,-21.408 -48,-48 z"
       id="path2" />
    <rect
       style="fill:url(#linearGradient842);fill-opacity:1;stroke-width:8"
       width="416"
       height="416"
       x="0"
       y="0.5"
       rx="48"
       ry="48"
       id="rect4" />
    <path
       style="opacity:0.2;fill-rule:evenodd;stroke-width:8"
       d="m 304,360.5 112,112 v -16 l -96,-96 z"
       id="path6" />
    <path
       style="fill:#4084d6;fill-opacity:1;fill-rule:evenodd;stroke-width:8"
       d="M 416,464.5 304,352.5 H 416 Z"
       id="path8" />
    <path
       style="opacity:0.2;stroke-width:8"
       d="m 186.8125,120.5 c 0,0 -31.68678,-0.68888 -65.25,23.96875 C 87.999304,169.12635 72,204.1627 72,277.6875 c 0,0 27.583352,33.1997 79.09375,34.8125 0,0 8.63268,-10.14785 15.625,-18.90625 -29.6,-8.7584 -40.8125,-26.96875 -40.8125,-26.96875 27.27266,15.24598 45.81294,21.60978 74.09375,21.875 28.28081,-0.2652 62.82109,-6.62902 90.09375,-21.875 0,0 -11.2125,18.21035 -40.8125,26.96875 6.99232,8.7584 15.625,18.90625 15.625,18.90625 C 316.41665,310.8872 344,277.6875 344,277.6875 344,204.1627 328.0007,169.12635 294.4375,144.46875 260.8743,119.81112 229.1875,120.5 229.1875,120.5 l -2.34375,2.76562 c 41.9536,11.7552 61.0625,29.93751 61.0625,29.93751 C 264,136.5 224,136.5 208,136.5 c -16,0 -56,3e-5 -79.90625,16.70313 0,0 19.1089,-18.18231 61.0625,-29.93751 z M 168,200.5 c 13.41056,0 24.2336,12.47306 24,28 0,15.52694 -10.58944,28 -24,28 -13.1752,0 -24,-12.47306 -24,-28 0,-15.52694 10.58976,-28 24,-28 z m 80,0 c 13.41024,0 24,12.47306 24,28 0,15.52694 -10.8248,28 -24,28 -13.41056,0 -24,-12.47306 -24,-28 -0.2336,-15.52694 10.58944,-28 24,-28 z"
       id="path10" />
    <path
       style="fill:#ffffff;stroke-width:8"
       d="m 186.8125,112.5 c 0,0 -31.68678,-0.68888 -65.25,23.96875 C 87.999304,161.12635 72,196.1627 72,269.6875 c 0,0 27.583352,33.1997 79.09375,34.8125 0,0 8.63268,-10.14785 15.625,-18.90625 -29.6,-8.7584 -40.8125,-26.96875 -40.8125,-26.96875 27.27266,15.24598 45.81294,21.60978 74.09375,21.875 28.28081,-0.2652 62.82109,-6.62902 90.09375,-21.875 0,0 -11.2125,18.21035 -40.8125,26.96875 6.99232,8.7584 15.625,18.90625 15.625,18.90625 C 316.41665,302.8872 344,269.6875 344,269.6875 344,196.1627 328.0007,161.12635 294.4375,136.46875 260.8743,111.81112 229.1875,112.5 229.1875,112.5 l -2.34375,2.76562 c 41.9536,11.7552 61.0625,29.93751 61.0625,29.93751 C 264,128.5 224,128.5 208,128.5 c -16,0 -56,3e-5 -79.90625,16.70313 0,0 19.1089,-18.18231 61.0625,-29.93751 z M 168,192.5 c 13.41056,0 24.2336,12.47306 24,28 0,15.52694 -10.58944,28 -24,28 -13.1752,0 -24,-12.47306 -24,-28 0,-15.52694 10.58976,-28 24,-28 z m 80,0 c 13.41024,0 24,12.47306 24,28 0,15.52694 -10.8248,28 -24,28 -13.41056,0 -24,-12.47306 -24,-28 -0.2336,-15.52694 10.58944,-28 24,-28 z"
       id="path12" />
    <path
       style="opacity:0.2;fill:#ffffff;stroke-width:8"
       d="M 48,0.5 C 21.408,0.5 0,21.908 0,48.5 v 8 C 0,29.908 21.408,8.5 48,8.5 h 320 c 26.592,0 48,21.408 48,48 v -8 c 0,-26.592 -21.408,-48 -48,-48 z"
       id="path14" />
  </g>
</svg>
